# xmcd
#
# Track frame offsets:
#	150
#	15185
#	33586
#	50681
#	66181
#	84326
#	102012
#	133451
#	148353
#	168955
#	189402
#	209437
#	231538
#
# Disc length: 3379 seconds
#
# Revision: 1
# Processed by: cddbd v1.4PL0 Copyright (c) Steve Scherf et al.
# Submitted via: audiograbber 1.81.03
#
DISCID=bb0d310d
DTITLE=John Landry - Bottom Of The Ninth
DYEAR=2002
DGENRE=Country
TTITLE0=When Will Your Memory Let Me Go
TTITLE1=Miles Beneath My Feet
TTITLE2=It's Gonna Be Alright
TTITLE3=Drive On
TTITLE4=You Were Right (I Was Wrong)
TTITLE5=You, You're Good
TTITLE6=If There Was A Way
TTITLE7=Everybody Rides
TTITLE8=Bottom Of The Ninth
TTITLE9=Wishful Drinkin'
TTITLE10=Ooo La La Baby
TTITLE11=The Long Way Home
TTITLE12=Early Morning Rain
EXTD=
EXTT0=
EXTT1=
EXTT2=
EXTT3=
EXTT4=
EXTT5=
EXTT6=
EXTT7=
EXTT8=
EXTT9=
EXTT10=
EXTT11=
EXTT12=
PLAYORDER=
